<svg width="16" height="15" viewBox="0 0 16 15" fill="none" xmlns="http://www.w3.org/2000/svg">
<path d="M8.64122 0.580182C8.39008 -0.193394 7.29565 -0.193394 7.04367 0.580182L5.76781 4.50602C5.71286 4.67455 5.606 4.82138 5.46252 4.92548C5.31904 5.02958 5.14631 5.08562 4.96904 5.08557H0.841619C0.0285656 5.08557 -0.310767 6.12709 0.347739 6.60585L3.6873 9.03157C3.83076 9.13586 3.93752 9.28288 3.99229 9.45156C4.04706 9.62025 4.04703 9.80194 3.9922 9.97061L2.71718 13.8964C2.4652 14.67 3.35133 15.3143 4.009 14.8355L7.34856 12.4098C7.4921 12.3054 7.66499 12.2492 7.84244 12.2492C8.0199 12.2492 8.19279 12.3054 8.33632 12.4098L11.6759 14.8355C12.3336 15.3143 13.2197 14.6709 12.9677 13.8964L11.6927 9.97061C11.6379 9.80194 11.6378 9.62025 11.6926 9.45156C11.7474 9.28288 11.8541 9.13586 11.9976 9.03157L15.3371 6.60585C15.9948 6.12709 15.6572 5.08557 14.8433 5.08557H10.715C10.5379 5.08544 10.3653 5.02932 10.222 4.92523C10.0787 4.82114 9.97198 4.67442 9.91707 4.50602L8.64122 0.580182Z" fill="#F9C94E"/>
</svg>
